<?xml version="1.0" encoding="UTF-8"?>
<!DOCTYPE svg PUBLIC "-//W3C//DTD SVG 1.1//EN" "http://www.w3.org/Graphics/SVG/1.1/DTD/svg11.dtd">
<!-- Creator: CorelDRAW X6 -->
<svg xmlns="http://www.w3.org/2000/svg" xml:space="preserve" width="15.0139in" height="8.5in" version="1.1" style="shape-rendering:geometricPrecision; text-rendering:geometricPrecision; image-rendering:optimizeQuality; fill-rule:evenodd; clip-rule:evenodd"
viewBox="0 0 15014 8500"
 xmlns:xlink="http://www.w3.org/1999/xlink">
 <defs>
  <style type="text/css">
   <![CDATA[
    .fil0 {fill:#848688;fill-rule:nonzero}
   ]]>
  </style>
 </defs>
 <g id="Layer_x0020_1">
  <metadata id="CorelCorpID_0Corel-Layer"/>
  <polygon class="fil0" points="0,3985 320,3985 320,1919 0,1919 0,1796 1591,1796 1591,2309 1454,2309 1454,1919 464,1919 464,2903 1268,2903 1268,3026 464,3026 464,3985 808,3985 808,4108 0,4108 "/>
  <polygon class="fil0" points="3003,3985 3323,3985 3323,1919 3003,1919 3003,1796 3801,1796 3801,1919 3467,1919 3467,3985 4405,3985 4405,3577 4542,3577 4542,4108 3003,4108 "/>
  <path class="fil0" d="M8023 2952c0,-594 -418,-1068 -1008,-1068 -587,0 -1008,471 -1008,1068 0,594 421,1068 1008,1068 590,0 1008,-471 1008,-1068zm-2164 0c0,-667 499,-1194 1159,-1194 660,0 1152,527 1152,1194 0,667 -495,1194 -1159,1194 -657,0 -1152,-527 -1152,-1194z"/>
  <path class="fil0" d="M11107 2446c0,-323 -249,-527 -653,-527l-390 0 0 1061c105,4 232,7 355,7 404,0 688,-186 688,-541zm-1507 1538l320 0 0 -2065 -320 0 0 -123 864 0c485,0 790,270 790,646 0,337 -225,558 -558,636l576 906 281 0 0 123 -379 0 -629 -1005c-39,4 -88,7 -134,7 -126,0 -253,0 -348,-4l0 878 327 0 0 123 -790 0 0 -123z"/>
  <path class="fil0" d="M14289 3128l-450 -1219 -453 1219 903 0zm-1623 857l253 0 773 -2065 -292 0 0 -123 878 0 0 123 -291 0 773 2065 257 0 0 123 -713 0 0 -123 302 0 -271 -734 -994 0 -270 734 309 0 0 123 -713 0 0 -123z"/>
  <path class="fil0" d="M12186 6132c1,9 3,18 4,27 16,-13 58,-83 42,-100 -17,-18 -43,66 -46,73zm-9682 736c-2,-64 -14,-85 -22,-118 -11,-46 -44,-105 -63,-107 -19,-2 -122,55 -161,85 -62,48 -262,205 -189,328 77,130 289,64 351,7 50,-46 64,-76 84,-195zm7737 -1098c3,158 195,93 209,-29 7,-60 -30,-134 -100,-115 -54,15 -114,87 -110,144 1,75 -4,-64 0,0zm-2692 370c31,-29 58,-45 67,-89 9,-45 3,-101 1,-147 -3,-69 -8,-152 -88,-93 -53,39 -154,134 -148,205 7,86 103,102 169,124zm1701 212c4,19 9,38 13,58 84,-81 137,-195 196,-296 29,-50 53,-100 66,-157 5,-20 31,-142 4,-158 -29,-18 -98,60 -115,76 -44,42 -79,89 -103,145 -46,104 -52,221 -60,333zm-2069 414c57,0 172,-100 214,-155 39,-52 65,-115 91,-174 16,-37 81,-137 73,-172 -9,-39 -57,-23 -98,-33 -52,-12 -99,-40 -135,-79 -84,-90 -51,-175 -24,-280 -63,2 -149,89 -182,140 -50,76 -78,166 -91,255 -20,136 -53,483 153,499 -9,0 -63,-5 0,0zm4537 1617c233,-1 248,-298 261,-471 9,-118 8,-236 12,-354 4,-121 22,-249 12,-384 -98,64 -167,199 -221,299 -68,124 -146,250 -201,381 -44,105 -86,259 -72,373 15,116 108,144 209,156 92,0 -21,-3 0,0zm-8453 -1804c3,71 5,201 39,293 13,36 37,89 77,101 44,13 86,-28 119,-51 185,-128 289,-322 432,-489 29,-34 60,-66 82,-106 25,-46 27,-94 41,-143 24,-82 61,-173 118,-237 58,-65 145,-100 230,-108 47,-5 90,1 132,24 61,35 54,58 61,120 -85,-21 -151,-62 -243,-40 -102,24 -140,128 -179,217 -55,127 -78,266 -47,402 11,49 26,127 74,154 50,28 105,-12 145,-42 73,-56 161,-145 187,-235 16,-56 10,-117 19,-174 11,-69 30,-136 48,-203 10,-36 19,-113 76,-103 57,10 34,91 30,127 -13,125 -63,254 -56,380 4,66 43,303 141,281 42,-9 101,-72 131,-101 45,-44 90,-88 132,-134 180,-195 269,-427 354,-673 22,-64 26,-90 -48,-95 -72,-5 -144,-8 -216,-13 -145,-11 -284,-42 -425,-79 -275,-73 -544,-168 -822,-230 -74,-16 -148,-32 -222,-47 -67,-14 -150,-45 -219,-41 -59,3 -65,45 -74,96 -12,70 -30,140 -42,210 -52,308 -57,626 -75,937zm4440 -626c-2,26 -19,97 6,112 25,15 92,-50 114,-65 42,-29 84,-59 125,-89 29,-20 70,-67 107,-67 140,0 53,427 60,511 26,-28 43,-70 61,-106 27,-54 52,-95 83,-137 55,-75 114,-137 200,-177 92,-43 190,-83 217,44 27,122 17,257 3,380 -12,106 -9,243 30,359 33,98 127,134 280,-18 104,-104 153,-114 166,-205 7,-49 -5,-103 -3,-152 2,-61 8,-122 14,-183 12,-111 51,-215 117,-305 49,-68 147,-168 237,-173 108,-6 114,133 107,209 -11,116 -58,223 -120,321 -61,98 -155,191 -201,298 -38,87 71,184 153,191 201,16 411,-137 550,-264 90,-82 168,-175 235,-277 28,-43 64,-88 81,-137 20,-58 -13,-50 -60,-64 -159,-46 -185,-243 -69,-351 67,-63 197,-115 274,-45 30,28 53,67 61,108 8,43 -20,103 24,126 40,21 84,-15 124,19 37,31 32,89 32,132 -2,126 -28,253 -50,376 -16,90 -179,665 -25,667 41,1 96,-40 132,-58 49,-26 99,-62 140,-100 88,-82 157,-173 231,-267 71,-90 133,-177 177,-284 49,-117 90,-235 145,-349 14,-29 38,-81 80,-58 42,24 15,102 10,137 -18,120 -49,244 -46,366 2,93 32,234 130,272 94,36 198,-30 265,-91 35,-32 70,-70 96,-110 30,-47 35,-105 46,-159 23,-116 61,-221 94,-335 25,-90 38,-252 161,-253 98,-1 96,102 85,172 -19,117 -64,234 -124,337 -54,93 -115,185 -124,294 -7,86 -5,113 -7,171 -2,63 -6,122 7,181 99,-74 178,-154 258,-227 87,-80 182,-151 270,-231 72,-65 152,-125 209,-204 35,-48 118,-215 180,-152 99,100 -325,408 -393,467 -87,75 -172,154 -255,233 -82,77 -196,157 -256,251 -50,79 -38,193 -42,282 -6,128 -12,256 -18,384 -10,221 -4,460 -101,665 -32,67 -56,106 -131,146 -29,15 -89,29 -120,30 -53,2 -105,-11 -147,-26 -88,-32 -151,-73 -169,-173 -20,-104 -3,-222 24,-324 61,-236 187,-475 332,-670 43,-57 88,-113 132,-170 33,-42 77,-86 95,-137 21,-61 10,-139 10,-202 0,-67 13,-151 -8,-214 -62,51 -100,100 -168,141 -63,38 -151,66 -224,42 -172,-58 -193,-245 -226,-395 -165,214 -281,460 -505,624 -75,55 -222,154 -317,105 -117,-61 -110,-188 -96,-300 18,-152 60,-299 89,-449 13,-69 23,-139 31,-209 4,-35 8,-70 12,-104 3,-25 20,-83 11,-107 -41,-107 -180,71 -202,112 -66,123 -133,243 -225,349 -92,105 -196,208 -314,283 -54,34 -109,69 -169,92 -79,30 -120,40 -196,45 -61,4 -123,-4 -179,-34 -51,-27 -79,-101 -116,-139 -15,-15 -105,66 -144,104 -51,49 -149,180 -215,194 -116,25 -220,-51 -257,-183 -39,-139 -30,-266 -18,-400 7,-79 8,-159 7,-238 0,-55 16,-129 -60,-105 -112,35 -192,163 -244,260 -74,138 -126,289 -171,439 -22,75 -42,154 -72,226 -22,52 -70,84 -101,13 -25,-57 17,-181 26,-242 13,-85 24,-169 35,-254 19,-148 69,-330 35,-477 -59,21 -98,60 -146,100 -47,39 -96,65 -147,96 -89,54 -105,152 -145,240 -80,179 -204,456 -435,469 -96,5 -182,-80 -206,-167 -6,-22 -9,-133 -33,-143 -21,-9 -48,66 -92,139 -129,212 -226,424 -478,387 -140,-20 -170,-192 -187,-308 -24,-163 7,-328 -11,-490 -107,105 -188,242 -283,359 -71,87 -156,200 -280,206 -144,7 -167,-132 -184,-244 -11,-69 -15,-138 -17,-208 -1,-72 17,-166 -4,-235 -37,26 -57,93 -81,130 -31,49 -65,97 -98,144 -68,98 -142,189 -228,271 -65,63 -156,175 -258,135 -107,-41 -120,-170 -168,-258 -82,72 -210,266 -335,246 -151,-25 -162,-218 -204,-329 -32,23 -61,76 -85,107 -37,46 -35,50 -73,95 -52,62 -112,124 -166,185 -95,107 -292,289 -423,127 -64,-79 -75,-192 -78,-289 -4,-116 -15,-229 -7,-345 16,-240 46,-479 50,-719 -142,167 -247,352 -375,529 -65,90 -129,161 -209,238 -40,38 -49,52 -109,108 -13,12 -45,30 -45,44 -1,16 69,105 82,154 45,165 -7,408 -198,470 -180,59 -372,9 -415,-107 -31,-83 -11,-225 57,-305 83,-98 324,-252 324,-252 39,-39 -59,-90 -110,-141 -136,-137 -285,-278 -287,-486 -2,-176 131,-361 294,-422 56,-21 195,-59 243,5 62,84 -106,72 -141,75 -186,16 -328,213 -290,398 20,97 96,172 159,244 66,75 138,145 199,226 18,24 23,40 59,33 0,0 76,-71 108,-101 80,-75 153,-158 221,-244 135,-168 239,-339 359,-518 26,-39 49,-78 71,-120 14,-27 63,-92 58,-122 -11,-70 -187,-14 -231,1 -82,28 -170,67 -243,114 -30,20 -62,71 -98,76 -39,5 -56,-22 -46,-59 19,-73 131,-117 191,-145 100,-47 208,-101 319,-115 37,-5 100,5 129,-22 26,-24 28,-98 35,-131 8,-41 12,-79 41,-109 41,-42 69,8 72,51 3,45 -49,132 -29,171 20,38 86,30 124,34 117,14 232,34 347,63 247,62 493,135 739,201 122,33 245,70 370,94 117,23 237,27 356,33 69,4 87,5 108,-61 19,-60 31,-123 46,-184 15,-61 30,-123 46,-184 17,-68 25,-95 75,-141 14,22 35,38 39,65 4,28 -14,73 -19,100 -15,71 -32,142 -47,213 -9,39 -53,152 -26,182 28,31 145,1 182,-6 146,-30 271,-112 400,-183 34,-18 134,-96 175,-72 33,19 12,80 -11,103 -42,42 -127,67 -180,94 -65,33 -131,66 -198,96 -65,29 -128,48 -198,59 -48,7 -156,4 -195,31 -45,31 -33,148 -39,198 -8,77 -16,154 -21,231 -11,155 -4,303 18,457 8,53 8,118 77,113 55,-4 116,-56 154,-92 99,-91 178,-211 255,-321 87,-123 150,-250 211,-387 16,-36 62,-121 99,-46 22,44 -17,160 -23,208 -19,149 -44,299 -48,449 -2,75 7,147 22,220 11,53 13,139 56,178 94,84 252,-30 304,-110 100,-152 109,-159 176,-272 35,-60 102,-122 119,-190 19,-74 11,-151 33,-226 38,-127 113,-278 229,-349 54,-33 115,-48 178,-41 70,8 96,-35 159,-65 191,-90 196,247 189,249 -2,34 2,-1 0,0z"/>
 </g>
</svg>
