<?xml version="1.0" encoding="utf-8"?>
<!-- Generator: Adobe Illustrator 19.2.0, SVG Export Plug-In . SVG Version: 6.00 Build 0)  -->
<svg version="1.1" id="Layer_1" xmlns="http://www.w3.org/2000/svg" xmlns:xlink="http://www.w3.org/1999/xlink" x="0px" y="0px"
	 viewBox="0 0 150 90" style="enable-background:new 0 0 150 90;" xml:space="preserve">
<style type="text/css">
	.st0{fill:#231F20;}
	.st1{fill:#86BD4A;}
</style>
<g>
	<g>
		<path class="st0" d="M62.7,25.4c4.3,0.3,4.7,0.6,4.7,5.2v21.2c0,4.5-0.4,4.9-4.7,5.2v1.5h14.5V57c-4.3-0.3-4.7-0.6-4.7-5.2V30.6
			c0-4.5,0.4-4.9,4.7-5.2v-1.5H62.7V25.4z"/>
		<path class="st0" d="M99.6,57.1c-7.9,0-13.7-6.8-13.7-16.7c0-8.1,4.6-15.6,13.4-15.6c5.4,0,8.8,2.2,10.2,8l1.7-0.4
			c-0.3-2.9-0.6-5.2-1.1-8.2c-1.5-0.3-5.2-1.4-9.5-1.4c-12.1,0-20.6,7.4-20.6,18.6c0,8.5,5.8,17.7,19.3,17.7c3.8,0,8.4-1.1,9.9-1.4
			c0.9-1.8,2.3-5.8,3-8.3l-1.5-0.6C107.8,54.2,104.8,57.1,99.6,57.1z"/>
		<path class="st0" d="M143.5,53c-2.7-2.9-8.5-9.5-12.5-14.5c3.5-3.5,7.3-7.3,9.3-9.2c3.3-3,4.7-3.5,8.8-3.9v-1.7h-13.2v1.7l1.3,0.2
			c2.3,0.3,2.3,0.8,0.9,2.6c-2.4,3-5.7,6.4-8.7,9.2c-1.6,1.4-2.6,2.2-3.9,2.5v-9.1c0-4.6,0.5-5,4.7-5.3v-1.7H116v1.7
			c4.4,0.3,4.8,0.6,4.8,5.3v20.6c0,4.6-0.4,4.9-4.6,5.2v1.8h14.2v-1.8c-4.5-0.3-5-0.6-5-5.2v-10c1-0.2,1.8-0.1,3.1,1.5
			c5,5.8,9.1,11,13.1,15.5h8.4v-1.8C147.4,56.3,146.2,55.9,143.5,53z"/>
	</g>
	<path class="st1" d="M41.2,41.3L59.1,31c-0.7-1.2-1.6-2.4-2.5-3.5c-0.6-0.7-1.3-1.3-1.9-1.9c-3.6-3.1-8.3-5-13.4-5
		c-2.4,0-4.7,0.4-6.9,1.2v-8.7c0-1.1-0.2-2.2-0.6-3.4c-0.6-2-1.7-4-3.3-5.6c-1.8-1.9-4-3.1-6.4-3.7l0,0c-2.9-0.8-6.1-0.5-8.9,0.7
		C14,4,13.9,7.1,14.8,10c0.6,2.1,1.7,4,3.3,5.6c1.8,1.9,4,3.1,6.4,3.7c0,0,0,0,0,0c1,0.3,2,0.4,3,0.4v2.1c-2.1-0.8-4.5-1.2-6.9-1.2
		h0c-6.1,0-11.6,2.7-15.4,6.9C2,31.2,0,36,0,41.3C0,46.6,2,51.4,5.2,55c3.8,4.2,9.3,6.9,15.4,6.9h0c2.4,0,4.7-0.4,6.9-1.2
		c1.2-0.4,2.4-1,3.4-1.6c1.1,0.6,2.2,1.2,3.4,1.6c2.1,0.8,4.5,1.2,6.9,1.2c5.1,0,9.8-1.9,13.4-5c0.7-0.6,1.3-1.2,2-1.9
		c0.9-1.1,1.8-2.2,2.5-3.5L41.2,41.3z M27.5,53.2c-0.7,0.4-1.5,0.8-2.3,1.1c-1.4,0.5-3,0.8-4.6,0.8h0C13,55,6.9,48.9,6.9,41.3
		c0-7.6,6.1-13.7,13.7-13.7h0c1.6,0,3.1,0.3,4.6,0.8c0.8,0.3,1.6,0.6,2.3,1.1V53.2z M23,10.9c-1.1-1.1-1.7-2.5-1.9-4
		c1.6,0.1,3.2,0.8,4.4,2c1.1,1.1,1.7,2.5,1.9,4C25.8,12.8,24.2,12.1,23,10.9z M34.3,37.3L34.3,37.3l0-7.9c0.7-0.4,1.5-0.8,2.3-1.1
		c1.4-0.5,3-0.8,4.6-0.8c2.5,0,4.9,0.7,6.9,1.9L34.3,37.3L34.3,37.3L34.3,37.3z M41.2,55c-1.6,0-3.1-0.3-4.6-0.8
		c-0.8-0.3-1.6-0.6-2.3-1.1v-7.9l13.7,7.9C46.1,54.4,43.7,55,41.2,55z"/>
	<g>
		<g>
			<path class="st1" d="M63.2,73.3v-0.3c1-0.1,1-0.1,1-1.1v-4.7c0-1-0.1-1.1-1-1.1v-0.3h3.2v0.3c-1,0.1-1,0.1-1,1.1v4.7
				c0,1,0.1,1.1,1,1.1v0.3H63.2z"/>
			<path class="st1" d="M70.4,73.3v-0.3c0.7-0.1,0.7-0.2,0.7-1v-2c0-0.8-0.3-1.3-1-1.3c-0.4,0-0.9,0.3-1.2,0.6V72
				c0,0.8,0.1,0.8,0.7,0.9v0.3H67v-0.3c0.8-0.1,0.8-0.1,0.8-0.9v-2.4c0-0.8-0.1-0.8-0.7-0.9v-0.3c0.6-0.1,1.2-0.2,1.7-0.5v0.9
				c0.2-0.2,0.5-0.4,0.8-0.5c0.3-0.2,0.6-0.4,1-0.4c0.9,0,1.5,0.7,1.5,1.8V72c0,0.8,0.1,0.8,0.7,0.9v0.3H70.4z"/>
			<path class="st1" d="M76.8,73.3v-0.3c0.7-0.1,0.7-0.2,0.7-1v-2c0-0.8-0.3-1.3-1-1.3c-0.4,0-0.9,0.3-1.2,0.6V72
				c0,0.8,0.1,0.8,0.7,0.9v0.3h-2.6v-0.3c0.8-0.1,0.8-0.1,0.8-0.9v-2.4c0-0.8-0.1-0.8-0.7-0.9v-0.3c0.6-0.1,1.2-0.2,1.7-0.5v0.9
				c0.2-0.2,0.5-0.4,0.8-0.5c0.3-0.2,0.6-0.4,1-0.4c0.9,0,1.5,0.7,1.5,1.8V72c0,0.8,0.1,0.8,0.7,0.9v0.3H76.8z"/>
			<path class="st1" d="M85.2,70.6c0,1.9-1.4,2.8-2.6,2.8c-1.7,0-2.6-1.3-2.6-2.6c0-1.9,1.5-2.8,2.6-2.8
				C84.1,68,85.2,69.1,85.2,70.6z M81.2,70.4c0,1.5,0.6,2.6,1.5,2.6c0.7,0,1.2-0.5,1.2-2.1c0-1.4-0.5-2.5-1.5-2.5
				C81.8,68.3,81.2,69.1,81.2,70.4z"/>
			<path class="st1" d="M91.1,68.4c-0.6,0.1-0.7,0.2-1,0.9c-0.4,0.9-1,2.3-1.7,4.1H88c-0.5-1.4-1.1-2.8-1.6-4.1
				c-0.3-0.6-0.4-0.7-1-0.8v-0.3h2.5v0.3c-0.6,0.1-0.6,0.2-0.5,0.7c0.3,0.8,0.8,2.1,1.1,2.8c0.4-0.9,0.8-2,1-2.7
				c0.2-0.5,0.1-0.7-0.6-0.8v-0.3h2.1V68.4z"/>
			<path class="st1" d="M95,73.4c-0.2,0-0.4-0.1-0.6-0.2c-0.2-0.2-0.2-0.3-0.3-0.5c-0.5,0.3-1,0.7-1.4,0.7c-0.9,0-1.4-0.7-1.4-1.4
				c0-0.6,0.3-0.9,0.9-1.2c0.7-0.2,1.6-0.6,1.8-0.8v-0.2c0-0.8-0.4-1.3-0.9-1.3c-0.2,0-0.4,0.1-0.5,0.2c-0.1,0.2-0.2,0.4-0.3,0.8
				c-0.1,0.2-0.2,0.3-0.4,0.3c-0.2,0-0.6-0.2-0.6-0.5c0-0.2,0.1-0.3,0.4-0.5c0.3-0.2,1.1-0.7,1.8-0.8c0.4,0,0.7,0.1,1,0.3
				c0.4,0.4,0.5,0.8,0.5,1.5v2.1c0,0.5,0.2,0.7,0.4,0.7c0.1,0,0.3,0,0.4-0.1l0.1,0.3L95,73.4z M94.1,70.4c-0.2,0.1-0.7,0.4-1,0.5
				c-0.4,0.2-0.7,0.4-0.7,0.9c0,0.6,0.5,0.9,0.8,0.9c0.3,0,0.6-0.2,0.9-0.4V70.4z"/>
			<path class="st1" d="M98.7,73.2c-0.2,0.1-0.4,0.2-0.5,0.2c-0.8,0-1.2-0.5-1.2-1.4v-3.4h-0.8l-0.1-0.1l0.3-0.4H97v-0.8l0.9-0.8
				l0.2,0v1.6h1.3c0.1,0.1,0.1,0.4-0.1,0.5H98v3c0,0.9,0.4,1.1,0.7,1.1c0.3,0,0.5-0.1,0.7-0.2l0.1,0.3L98.7,73.2z"/>
			<path class="st1" d="M100,73.3v-0.3c0.7-0.1,0.8-0.1,0.8-0.9v-2.4c0-0.7,0-0.8-0.7-0.9v-0.3c0.6-0.1,1.2-0.2,1.8-0.5V72
				c0,0.8,0.1,0.9,0.8,0.9v0.3H100z M100.6,66.3c0-0.4,0.3-0.7,0.6-0.7c0.3,0,0.6,0.3,0.6,0.7c0,0.3-0.3,0.6-0.6,0.6
				C100.9,67,100.6,66.7,100.6,66.3z"/>
			<path class="st1" d="M108.5,70.6c0,1.9-1.4,2.8-2.6,2.8c-1.7,0-2.6-1.3-2.6-2.6c0-1.9,1.5-2.8,2.6-2.8
				C107.4,68,108.5,69.1,108.5,70.6z M104.5,70.4c0,1.5,0.6,2.6,1.5,2.6c0.7,0,1.2-0.5,1.2-2.1c0-1.4-0.5-2.5-1.5-2.5
				C105.1,68.3,104.5,69.1,104.5,70.4z"/>
			<path class="st1" d="M112.5,73.3v-0.3c0.7-0.1,0.7-0.2,0.7-1v-2c0-0.8-0.3-1.3-1-1.3c-0.4,0-0.9,0.3-1.2,0.6V72
				c0,0.8,0.1,0.8,0.7,0.9v0.3h-2.6v-0.3c0.8-0.1,0.8-0.1,0.8-0.9v-2.4c0-0.8-0.1-0.8-0.7-0.9v-0.3c0.6-0.1,1.2-0.2,1.7-0.5v0.9
				c0.2-0.2,0.5-0.4,0.8-0.5c0.3-0.2,0.6-0.4,1-0.4c0.9,0,1.5,0.7,1.5,1.8V72c0,0.8,0.1,0.8,0.7,0.9v0.3H112.5z"/>
			<path class="st1" d="M125.5,71.3c-0.2,0.6-0.5,1.4-0.7,1.8c-0.3,0.1-1.3,0.3-2.2,0.3c-3,0-4.3-2-4.3-3.9c0-2.5,1.9-4.1,4.6-4.1
				c1,0,1.8,0.2,2.1,0.3c0.1,0.7,0.2,1.2,0.2,1.8l-0.4,0.1c-0.3-1.3-1.1-1.8-2.3-1.8c-1.9,0-3,1.6-3,3.4c0,2.2,1.3,3.7,3,3.7
				c1.2,0,1.8-0.6,2.4-1.8L125.5,71.3z"/>
			<path class="st1" d="M130.6,72.2c-0.7,0.9-1.6,1.2-2,1.2c-1.5,0-2.3-1.2-2.3-2.5c0-0.8,0.3-1.6,0.8-2.1c0.5-0.5,1.1-0.9,1.7-0.9
				h0c1,0,1.8,0.9,1.8,1.8c0,0.2-0.1,0.4-0.3,0.4c-0.2,0-1.7,0.2-3,0.2c0,1.5,0.9,2.2,1.7,2.2c0.5,0,0.9-0.2,1.3-0.6L130.6,72.2z
				 M127.4,69.8c0.6,0,1.2,0,1.9,0c0.2,0,0.3-0.1,0.3-0.2c0-0.6-0.4-1.2-1-1.2C128.1,68.4,127.6,68.9,127.4,69.8z"/>
			<path class="st1" d="M134.7,73.3v-0.3c0.7-0.1,0.7-0.2,0.7-1v-2c0-0.8-0.3-1.3-1-1.3c-0.4,0-0.9,0.3-1.2,0.6V72
				c0,0.8,0.1,0.8,0.7,0.9v0.3h-2.6v-0.3c0.8-0.1,0.8-0.1,0.8-0.9v-2.4c0-0.8-0.1-0.8-0.7-0.9v-0.3c0.6-0.1,1.2-0.2,1.7-0.5v0.9
				c0.2-0.2,0.5-0.4,0.8-0.5c0.3-0.2,0.6-0.4,1-0.4c0.9,0,1.5,0.7,1.5,1.8V72c0,0.8,0.1,0.8,0.7,0.9v0.3H134.7z"/>
			<path class="st1" d="M140,73.2c-0.2,0.1-0.4,0.2-0.5,0.2c-0.8,0-1.2-0.5-1.2-1.4v-3.4h-0.8l-0.1-0.1l0.3-0.4h0.5v-0.8l0.9-0.8
				l0.2,0v1.6h1.3c0.1,0.1,0.1,0.4-0.1,0.5h-1.2v3c0,0.9,0.4,1.1,0.7,1.1c0.3,0,0.5-0.1,0.7-0.2l0.1,0.3L140,73.2z"/>
			<path class="st1" d="M143.2,69.2c0.4-0.6,0.9-1.3,1.4-1.3c0.4,0,0.7,0.3,0.7,0.6c0,0.3-0.2,0.5-0.4,0.6c-0.1,0.1-0.2,0-0.3,0
				c-0.2-0.2-0.3-0.2-0.5-0.2c-0.3,0-0.6,0.3-0.9,0.9V72c0,0.8,0.1,0.8,1,0.9v0.3h-2.8v-0.3c0.7-0.1,0.8-0.1,0.8-0.9v-2.5
				c0-0.7-0.1-0.8-0.7-0.9v-0.3c0.6-0.1,1.1-0.2,1.7-0.5L143.2,69.2L143.2,69.2z"/>
			<path class="st1" d="M149.9,72.2c-0.7,0.9-1.6,1.2-2,1.2c-1.5,0-2.3-1.2-2.3-2.5c0-0.8,0.3-1.6,0.8-2.1c0.5-0.5,1.1-0.9,1.7-0.9
				h0c1,0,1.8,0.9,1.8,1.8c0,0.2-0.1,0.4-0.3,0.4c-0.2,0-1.7,0.2-3,0.2c0,1.5,0.9,2.2,1.7,2.2c0.5,0,0.9-0.2,1.3-0.6L149.9,72.2z
				 M146.7,69.8c0.6,0,1.2,0,1.9,0c0.2,0,0.3-0.1,0.3-0.2c0-0.6-0.4-1.2-1-1.2C147.4,68.4,146.9,68.9,146.7,69.8z"/>
			<path class="st1" d="M68.8,87.8c-0.8-1-1.8-2.2-2.8-3.4c-0.3-0.3-0.4-0.4-0.6-0.3v2.2c0,1,0.1,1.1,1.1,1.2v0.3h-3.1v-0.3
				c0.9-0.1,1-0.2,1-1.2v-4.6c0-1-0.1-1.1-1-1.2v-0.3h3.1v0.3c-0.9,0.1-1,0.2-1,1.2v2.1c0.3-0.1,0.5-0.2,0.8-0.5
				c0.7-0.7,1.4-1.4,1.9-2.1c0.3-0.4,0.3-0.5-0.2-0.6l-0.3,0v-0.3h2.9v0.3c-0.9,0.1-1.2,0.2-1.9,0.9c-0.5,0.5-1.3,1.3-2,2
				c0.9,1.1,2.1,2.5,2.7,3.3c0.6,0.6,0.8,0.8,1.4,0.9v0.3H68.8z"/>
			<path class="st1" d="M76.1,85.2c0,1.9-1.4,2.8-2.6,2.8c-1.7,0-2.6-1.3-2.6-2.6c0-1.9,1.5-2.8,2.6-2.8
				C75,82.5,76.1,83.7,76.1,85.2z M72.1,85c0,1.5,0.6,2.6,1.5,2.6c0.7,0,1.2-0.5,1.2-2.1c0-1.4-0.5-2.5-1.5-2.5
				C72.7,82.9,72.1,83.6,72.1,85z"/>
			<path class="st1" d="M80,84.1c-0.2-0.7-0.6-1.2-1.2-1.2c-0.4,0-0.7,0.3-0.7,0.8c0,0.5,0.4,0.8,1,1c0.9,0.4,1.5,0.8,1.5,1.6
				c0,1.1-1,1.6-2,1.6c-0.6,0-1.2-0.2-1.4-0.4c-0.1-0.2-0.2-1-0.2-1.4l0.3,0c0.2,0.8,0.8,1.5,1.5,1.5c0.4,0,0.8-0.3,0.8-0.8
				c0-0.5-0.3-0.8-0.9-1c-0.7-0.3-1.5-0.7-1.5-1.6c0-0.8,0.7-1.6,1.8-1.6c0.5,0,0.8,0.1,1.1,0.2c0.1,0.3,0.2,1,0.3,1.3L80,84.1z"/>
			<path class="st1" d="M86.6,85.2c0,1.9-1.4,2.8-2.6,2.8c-1.7,0-2.6-1.3-2.6-2.6c0-1.9,1.5-2.8,2.6-2.8
				C85.5,82.5,86.6,83.7,86.6,85.2z M82.6,85c0,1.5,0.6,2.6,1.5,2.6c0.7,0,1.2-0.5,1.2-2.1c0-1.4-0.5-2.5-1.5-2.5
				C83.2,82.9,82.6,83.6,82.6,85z"/>
			<path class="st1" d="M92.5,83c-0.6,0.1-0.7,0.2-1,0.9c-0.4,0.9-1,2.3-1.7,4.1h-0.3c-0.5-1.4-1.1-2.8-1.6-4.1
				c-0.3-0.6-0.4-0.7-1-0.8v-0.3h2.5V83c-0.6,0.1-0.6,0.2-0.5,0.7c0.3,0.8,0.8,2.1,1.1,2.8c0.4-0.9,0.8-2,1-2.7
				c0.2-0.5,0.1-0.7-0.6-0.8v-0.3h2.1V83z"/>
			<path class="st1" d="M97.8,85.2c0,1.9-1.4,2.8-2.6,2.8c-1.7,0-2.6-1.3-2.6-2.6c0-1.9,1.5-2.8,2.6-2.8
				C96.7,82.5,97.8,83.7,97.8,85.2z M93.8,85c0,1.5,0.6,2.6,1.5,2.6c0.7,0,1.2-0.5,1.2-2.1c0-1.4-0.5-2.5-1.5-2.5
				C94.4,82.9,93.8,83.6,93.8,85z"/>
		</g>
	</g>
</g>
</svg>
